<svg width="446" height="576" viewBox="0 0 446 576" fill="none" xmlns="http://www.w3.org/2000/svg">
<path d="M35.701 0C26.302 0 17.107 3.807 10.452 10.452C3.816 17.097 0 26.297 0 35.692V40.17H445.58V35.692C445.58 26.296 441.779 17.097 435.128 10.452C428.492 3.807 419.296 0 409.897 0H35.701Z" fill="#616E7D"/>
<path d="M10.452 565.111C17.107 571.75 26.302 575.557 35.701 575.557H409.897C419.296 575.557 428.492 571.75 435.128 565.105C441.779 558.457 445.58 549.27 445.58 539.874V59.174H0V539.874C0 549.27 3.816 558.457 10.452 565.111ZM44.156 290.176V253.231H135.881V290.176C135.881 292.442 134.955 294.654 133.354 296.258C131.753 297.859 129.535 298.776 127.281 298.776H52.75C50.496 298.776 48.28 297.859 46.68 296.258C45.082 294.657 44.156 292.442 44.156 290.176ZM141.134 531.35C141.134 533.616 140.227 535.831 138.626 537.432C137.025 539.03 134.807 539.953 132.534 539.953H58.024C55.751 539.953 53.551 539.03 51.933 537.432C50.335 535.831 49.427 533.616 49.427 531.35V456.834C49.427 454.57 50.335 452.352 51.933 450.751C53.534 449.153 55.752 448.23 58.024 448.23H132.534C134.807 448.23 137.025 449.153 138.626 450.751C140.227 452.352 141.134 454.57 141.134 456.834V531.35ZM141.153 413.701C141.153 415.964 140.227 418.18 138.626 419.783C137.025 421.381 134.807 422.301 132.553 422.301H58.025C55.752 422.301 53.552 421.381 51.952 419.783C50.336 418.185 49.428 415.964 49.428 413.701V339.182C49.428 336.918 50.336 334.698 51.952 333.099C53.553 331.501 55.753 330.582 58.025 330.582H132.553C134.807 330.582 137.026 331.502 138.626 333.099C140.227 334.697 141.153 336.918 141.153 339.182V413.701ZM162.274 290.176V253.231H253.999V290.176C253.999 292.442 253.072 294.654 251.475 296.258C249.874 297.859 247.659 298.776 245.405 298.776H170.874C168.619 298.776 166.401 297.859 164.801 296.258C163.2 294.657 162.274 292.442 162.274 290.176ZM166.819 339.182C166.819 336.918 167.745 334.698 169.346 333.099C170.947 331.501 173.165 330.582 175.419 330.582H249.95C252.205 330.582 254.42 331.502 256.02 333.099C257.618 334.697 258.544 336.918 258.544 339.182V413.701C258.544 415.964 257.617 418.18 256.02 419.783C254.42 421.381 252.204 422.301 249.95 422.301H175.419C173.165 422.301 170.946 421.381 169.346 419.783C167.745 418.185 166.819 415.964 166.819 413.701V339.182ZM258.907 531.35C258.907 533.616 257.981 535.831 256.383 537.432C254.782 539.03 252.567 539.953 250.313 539.953H175.782C173.509 539.953 171.309 539.03 169.709 537.432C168.09 535.831 167.182 533.616 167.182 531.35V456.834C167.182 454.57 168.09 452.352 169.709 450.751C171.31 449.153 173.51 448.23 175.782 448.23H250.313C252.568 448.23 254.782 449.153 256.383 450.751C257.981 452.352 258.907 454.57 258.907 456.834V531.35ZM396.226 531.35C396.226 533.668 395.336 535.844 393.699 537.483C392.063 539.117 389.883 540.019 387.575 540.019H295.106C292.812 540.019 290.578 539.096 288.96 537.483C287.341 535.867 286.433 533.634 286.433 531.35V331.956C286.433 329.671 287.341 327.441 288.96 325.825C290.579 324.209 292.812 323.283 295.106 323.283H387.575C389.848 323.283 392.084 324.209 393.699 325.825C395.318 327.441 396.226 329.671 396.226 331.956V531.35ZM290.214 290.176V253.231H381.921V290.176C381.921 292.442 381.013 294.654 379.413 296.258C377.793 297.859 375.594 298.776 373.321 298.776H298.808C296.535 298.776 294.321 297.859 292.72 296.258C291.122 294.657 290.214 292.442 290.214 290.176ZM32.3 80.917H413.296V225.803H32.3V80.917Z" fill="#616E7D"/>
<path d="M295.105 323.284C292.811 323.284 290.577 324.21 288.959 325.826C287.34 327.442 286.432 329.672 286.432 331.957V531.351C286.432 533.635 287.34 535.869 288.959 537.484C290.578 539.097 292.811 540.02 295.105 540.02H387.574C389.883 540.02 392.062 539.118 393.698 537.484C395.335 535.844 396.225 533.668 396.225 531.351V331.956C396.225 329.671 395.317 327.441 393.698 325.825C392.082 324.209 389.846 323.283 387.574 323.283L295.105 323.284ZM365.524 444.276H314.499V435.742H365.524V444.276ZM365.524 421.254H314.499V412.721H365.524V421.254Z" fill="#AAD4C8"/>
<path d="M175.419 330.582C173.165 330.582 170.946 331.502 169.346 333.099C167.745 334.697 166.819 336.918 166.819 339.182V413.701C166.819 415.964 167.745 418.185 169.346 419.783C170.947 421.381 173.165 422.301 175.419 422.301H249.95C252.205 422.301 254.42 421.381 256.02 419.783C257.618 418.18 258.544 415.964 258.544 413.701V339.182C258.544 336.918 257.617 334.698 256.02 333.099C254.42 331.501 252.204 330.582 249.95 330.582H175.419Z" fill="#82BFAB"/>
<path d="M175.782 448.231C173.509 448.231 171.309 449.154 169.709 450.752C168.09 452.353 167.182 454.571 167.182 456.835V531.351C167.182 533.617 168.09 535.832 169.709 537.433C171.31 539.031 173.51 539.954 175.782 539.954H250.313C252.568 539.954 254.782 539.031 256.383 537.433C257.981 535.832 258.907 533.617 258.907 531.351V456.835C258.907 454.571 257.981 452.353 256.383 450.752C254.782 449.154 252.567 448.231 250.313 448.231H175.782Z" fill="#82BFAB"/>
<path d="M58.024 330.582C55.751 330.582 53.551 331.502 51.951 333.099C50.335 334.697 49.427 336.918 49.427 339.182V413.701C49.427 415.964 50.335 418.185 51.951 419.783C53.552 421.381 55.752 422.301 58.024 422.301H132.552C134.806 422.301 137.025 421.381 138.625 419.783C140.226 418.18 141.152 415.964 141.152 413.701V339.182C141.152 336.918 140.226 334.698 138.625 333.099C137.024 331.501 134.806 330.582 132.552 330.582H58.024Z" fill="#82BFAB"/>
<path d="M164.801 296.258C166.402 297.859 168.62 298.776 170.874 298.776H245.405C247.66 298.776 249.874 297.859 251.475 296.258C253.073 294.654 253.999 292.442 253.999 290.176V253.231H162.274V290.176C162.274 292.442 163.2 294.657 164.801 296.258Z" fill="#82BFAB"/>
<path d="M292.72 296.258C294.321 297.859 296.536 298.776 298.808 298.776H373.321C375.594 298.776 377.793 297.859 379.413 296.258C381.013 294.654 381.921 292.442 381.921 290.176V253.231H290.214V290.176C290.214 292.442 291.122 294.657 292.72 296.258Z" fill="#82BFAB"/>
<path d="M46.68 296.258C48.28 297.859 50.496 298.776 52.75 298.776H127.281C129.536 298.776 131.754 297.859 133.354 296.258C134.955 294.654 135.881 292.442 135.881 290.176V253.231H44.156V290.176C44.156 292.442 45.082 294.657 46.68 296.258Z" fill="#82BFAB"/>
<path d="M58.024 448.231C55.751 448.231 53.534 449.154 51.933 450.752C50.335 452.353 49.427 454.571 49.427 456.835V531.351C49.427 533.617 50.335 535.832 51.933 537.433C53.552 539.031 55.752 539.954 58.024 539.954H132.534C134.807 539.954 137.025 539.031 138.626 537.433C140.227 535.832 141.134 533.617 141.134 531.351V456.835C141.134 454.571 140.227 452.353 138.626 450.752C137.025 449.154 134.807 448.231 132.534 448.231H58.024Z" fill="#82BFAB"/>
<path d="M413.295 225.803V80.917H32.3V225.803H413.295ZM340.459 188.044L341.767 187.036C342.13 187.036 342.747 187.281 343.64 187.771C344.527 188.261 345.673 188.791 347.057 189.351C348.436 189.914 350.056 190.441 351.911 190.937C353.765 191.427 355.871 191.672 358.235 191.672C360.235 191.672 361.999 191.433 363.525 190.961C365.053 190.489 366.342 189.826 367.416 188.976C368.488 188.116 369.289 187.075 369.819 185.862C370.343 184.646 370.615 183.287 370.615 181.798C370.615 180.164 370.288 178.693 369.653 177.38C369.017 176.072 368.07 174.953 366.818 174.027C365.565 173.101 363.98 172.38 362.073 171.872C360.164 171.364 357.931 171.11 355.346 171.11H349.239L348.039 170.922L347.221 170.129L346.75 168.464C346.658 167.756 346.62 166.836 346.62 165.711C346.62 164.655 346.658 163.795 346.75 163.121L347.185 161.565L347.947 160.803L349.074 160.585H355.237C357.346 160.585 359.219 160.343 360.854 159.847C362.491 159.357 363.855 158.655 364.963 157.747C366.071 156.839 366.927 155.744 367.508 154.449C368.092 153.16 368.382 151.732 368.382 150.17C368.382 148.971 368.182 147.834 367.78 146.763C367.381 145.691 366.782 144.759 366.001 143.982C365.218 143.199 364.219 142.581 362.981 142.127C361.747 141.673 360.294 141.443 358.618 141.443C356.729 141.443 354.947 141.728 353.277 142.29C351.604 142.853 350.097 143.47 348.769 144.142C347.44 144.814 346.315 145.443 345.389 146.024C344.459 146.605 343.785 146.895 343.349 146.895L342.587 146.708L342.042 145.969L341.713 144.387C341.643 143.7 341.606 142.81 341.606 141.715C341.606 140.807 341.621 140.05 341.661 139.452L341.879 137.957L342.279 136.916L343.078 135.963C343.441 135.621 344.189 135.1 345.315 134.411C346.441 133.721 347.86 133.049 349.57 132.389C351.279 131.736 353.241 131.179 355.48 130.725C357.713 130.271 360.149 130.047 362.767 130.047C366.185 130.047 369.202 130.446 371.838 131.245C374.474 132.047 376.692 133.2 378.489 134.713C380.289 136.22 381.654 138.072 382.58 140.269C383.506 142.472 383.978 144.954 383.978 147.719C383.978 149.861 383.706 151.861 383.162 153.713C382.617 155.568 381.818 157.223 380.762 158.679C379.706 160.132 378.384 161.366 376.798 162.383C375.218 163.406 373.4 164.168 371.327 164.677V164.837C373.799 165.13 376.02 165.757 377.982 166.716C379.945 167.684 381.601 168.894 382.963 170.347C384.328 171.8 385.381 173.446 386.11 175.283C386.836 177.12 387.199 179.09 387.199 181.199C387.199 184.727 386.525 187.856 385.184 190.58C383.838 193.309 381.965 195.597 379.565 197.449C377.165 199.307 374.294 200.711 370.95 201.676C367.603 202.642 363.951 203.125 359.986 203.125C357.587 203.125 355.332 202.95 353.223 202.604C351.117 202.256 349.244 201.829 347.625 201.321C346.009 200.812 344.681 200.286 343.625 199.738C342.572 199.193 341.882 198.779 341.555 198.488L340.808 197.505L340.375 196.222L340.102 194.367C340.045 193.623 340.026 192.721 340.026 191.671C340.02 189.923 340.166 188.716 340.459 188.044ZM283.742 192.789C283.851 191.936 284.051 191.167 284.341 190.495L285.449 188.534L287.231 186.434L299.447 173.347C301.882 170.802 303.847 168.484 305.335 166.396C306.827 164.302 307.989 162.396 308.827 160.668C309.662 158.94 310.225 157.349 310.534 155.896C310.846 154.443 311.009 153.061 311.009 151.75C311.009 150.552 310.806 149.414 310.425 148.343C310.044 147.269 309.481 146.334 308.737 145.535C307.99 144.736 307.064 144.107 305.938 143.653C304.809 143.199 303.484 142.972 301.955 142.972C299.809 142.972 297.9 143.248 296.248 143.792C294.593 144.337 293.138 144.942 291.885 145.62C290.629 146.292 289.594 146.906 288.76 147.472L286.795 148.319L285.942 147.989L285.379 146.896C285.231 146.388 285.107 145.71 285.016 144.851C284.925 143.998 284.886 142.956 284.886 141.716L284.958 139.622L285.215 138.145L285.651 137.056L286.595 135.937C287.049 135.501 287.884 134.944 289.104 134.272C290.321 133.6 291.83 132.947 293.61 132.311C295.395 131.676 297.356 131.137 299.501 130.702C301.647 130.266 303.883 130.048 306.211 130.048C309.88 130.048 313.079 130.514 315.827 131.44C318.572 132.366 320.862 133.655 322.678 135.313C324.496 136.965 325.843 138.926 326.733 141.202C327.623 143.472 328.077 145.916 328.077 148.534C328.077 150.825 327.859 153.082 327.423 155.297C326.987 157.515 326.076 159.903 324.697 162.469C323.314 165.029 321.371 167.867 318.863 170.978C316.351 174.083 313.029 177.693 308.88 181.799L300.649 190.253H328.461L329.459 190.58L330.258 191.588L330.751 193.388C330.86 194.132 330.915 195.013 330.915 196.033C330.915 197.086 330.86 197.985 330.77 198.732L330.37 200.56L329.659 201.571L328.678 201.868H288.105L286.032 201.65L284.613 200.803L283.811 198.981C283.651 198.177 283.578 197.147 283.578 195.871C283.579 194.671 283.63 193.642 283.742 192.789ZM230.299 144.578L230.572 143.138L231.171 142.155L232.209 141.335L247.366 131.518L248.041 131.167L249.112 130.946L250.819 130.84C251.529 130.816 252.455 130.81 253.584 130.81C254.964 130.81 256.074 130.84 256.928 130.895C257.781 130.946 258.436 131.037 258.874 131.168L259.749 131.685L259.964 132.502V190.798H271.472L272.362 191.101L273.07 192.051L273.509 193.77C273.6 194.478 273.654 195.362 273.654 196.415C273.654 197.431 273.6 198.297 273.491 199.005L273.019 200.7L272.343 201.596L271.472 201.869H232.533L231.716 201.596L231.026 200.7L230.572 199.005C230.46 198.297 230.408 197.432 230.408 196.415C230.408 195.362 230.442 194.478 230.532 193.77L230.971 192.051L231.661 191.101L232.532 190.798H245.677V144.881L234.332 151.151L232.278 151.889L231.025 151.562L230.408 149.952C230.299 149.187 230.242 148.112 230.242 146.732C230.242 145.861 230.26 145.141 230.299 144.578Z" fill="white"/>
<path d="M232.532 190.798L231.661 191.101L230.971 192.051L230.532 193.77C230.441 194.478 230.408 195.362 230.408 196.415C230.408 197.431 230.46 198.297 230.572 199.005L231.026 200.7L231.716 201.596L232.533 201.869H271.472L272.343 201.596L273.019 200.7L273.491 199.005C273.6 198.297 273.654 197.432 273.654 196.415C273.654 195.362 273.6 194.478 273.509 193.77L273.07 192.051L272.362 191.101L271.472 190.798H259.964V132.502L259.749 131.685L258.874 131.168C258.436 131.038 257.781 130.947 256.928 130.895C256.075 130.84 254.964 130.81 253.584 130.81C252.455 130.81 251.529 130.816 250.819 130.84L249.112 130.946L248.041 131.167L247.366 131.518L232.209 141.335L231.171 142.155L230.572 143.138L230.299 144.578C230.26 145.141 230.242 145.861 230.242 146.733C230.242 148.113 230.299 149.187 230.408 149.953L231.025 151.563L232.278 151.89L234.332 151.152L245.677 144.882V190.799L232.532 190.798Z" fill="#AAD4C8"/>
<path d="M308.827 160.668C307.989 162.396 306.827 164.302 305.335 166.396C303.847 168.484 301.882 170.802 299.447 173.347L287.231 186.434L285.449 188.534L284.341 190.495C284.05 191.167 283.851 191.935 283.742 192.789C283.63 193.642 283.578 194.671 283.578 195.87C283.578 197.147 283.651 198.176 283.811 198.98L284.613 200.802L286.032 201.649L288.105 201.867H328.678L329.659 201.57L330.37 200.559L330.77 198.731C330.861 197.984 330.915 197.085 330.915 196.032C330.915 195.012 330.86 194.131 330.751 193.387L330.258 191.587L329.459 190.579L328.461 190.252H300.649L308.88 181.798C313.029 177.692 316.351 174.082 318.863 170.977C321.372 167.866 323.314 165.028 324.697 162.468C326.077 159.902 326.988 157.515 327.423 155.296C327.859 153.081 328.077 150.823 328.077 148.533C328.077 145.915 327.623 143.47 326.733 141.201C325.843 138.925 324.496 136.964 322.678 135.312C320.862 133.654 318.572 132.365 315.827 131.439C313.08 130.513 309.881 130.047 306.211 130.047C303.883 130.047 301.647 130.264 299.501 130.701C297.356 131.137 295.395 131.675 293.61 132.31C291.83 132.946 290.321 133.599 289.104 134.271C287.884 134.943 287.05 135.5 286.595 135.936L285.651 137.055L285.215 138.144L284.958 139.621L284.886 141.715C284.886 142.956 284.925 143.997 285.016 144.85C285.107 145.709 285.23 146.387 285.379 146.895L285.942 147.988L286.795 148.318L288.76 147.471C289.595 146.905 290.63 146.291 291.885 145.619C293.138 144.941 294.593 144.336 296.248 143.791C297.9 143.246 299.81 142.971 301.955 142.971C303.484 142.971 304.809 143.198 305.938 143.652C307.063 144.106 307.989 144.735 308.737 145.534C309.481 146.333 310.044 147.268 310.425 148.342C310.807 149.414 311.009 150.551 311.009 151.749C311.009 153.06 310.846 154.442 310.534 155.895C310.226 157.348 309.663 158.94 308.827 160.668Z" fill="#AAD4C8"/>
<path d="M367.414 188.976C366.34 189.826 365.051 190.489 363.523 190.961C361.997 191.433 360.233 191.672 358.233 191.672C355.869 191.672 353.763 191.427 351.909 190.937C350.054 190.441 348.434 189.914 347.055 189.351C345.672 188.791 344.525 188.261 343.638 187.771C342.746 187.281 342.128 187.036 341.765 187.036L340.457 188.044C340.165 188.716 340.018 189.923 340.018 191.672C340.018 192.722 340.037 193.624 340.094 194.368L340.367 196.223L340.8 197.506L341.547 198.489C341.874 198.78 342.564 199.194 343.617 199.739C344.673 200.287 346.002 200.813 347.617 201.322C349.236 201.83 351.109 202.257 353.215 202.605C355.324 202.95 357.579 203.126 359.978 203.126C363.942 203.126 367.595 202.642 370.942 201.677C374.286 200.711 377.157 199.308 379.557 197.45C381.957 195.598 383.83 193.31 385.176 190.581C386.517 187.857 387.191 184.728 387.191 181.2C387.191 179.091 386.828 177.121 386.102 175.284C385.373 173.447 384.32 171.801 382.955 170.348C381.593 168.895 379.938 167.685 377.974 166.717C376.013 165.758 373.792 165.131 371.319 164.838V164.678C373.392 164.169 375.21 163.407 376.79 162.384C378.376 161.367 379.698 160.132 380.754 158.68C381.81 157.224 382.609 155.569 383.154 153.714C383.698 151.862 383.97 149.862 383.97 147.72C383.97 144.954 383.498 142.473 382.572 140.27C381.646 138.073 380.281 136.221 378.481 134.714C376.684 133.201 374.465 132.048 371.83 131.246C369.194 130.447 366.177 130.048 362.759 130.048C360.141 130.048 357.704 130.272 355.472 130.726C353.233 131.18 351.271 131.737 349.562 132.39C347.852 133.05 346.433 133.722 345.307 134.412C344.181 135.102 343.434 135.622 343.07 135.964L342.271 136.917L341.871 137.958L341.653 139.453C341.613 140.052 341.598 140.808 341.598 141.716C341.598 142.812 341.635 143.701 341.705 144.388L342.034 145.97L342.579 146.709L343.341 146.896C343.777 146.896 344.452 146.606 345.381 146.025C346.307 145.444 347.432 144.815 348.761 144.143C350.09 143.471 351.596 142.854 353.269 142.291C354.939 141.728 356.722 141.444 358.61 141.444C360.286 141.444 361.738 141.674 362.973 142.128C364.211 142.582 365.21 143.199 365.993 143.983C366.774 144.761 367.373 145.693 367.772 146.764C368.175 147.835 368.374 148.973 368.374 150.171C368.374 151.732 368.083 153.161 367.5 154.45C366.919 155.745 366.063 156.84 364.955 157.748C363.848 158.656 362.484 159.358 360.846 159.848C359.212 160.344 357.338 160.586 355.229 160.586H349.066L347.939 160.804L347.177 161.566L346.742 163.122C346.65 163.797 346.612 164.656 346.612 165.712C346.612 166.837 346.65 167.758 346.742 168.465L347.213 170.13L348.031 170.923L349.231 171.111H355.338C357.922 171.111 360.155 171.365 362.065 171.873C363.972 172.381 365.557 173.102 366.81 174.028C368.063 174.954 369.01 176.073 369.645 177.381C370.28 178.694 370.607 180.165 370.607 181.799C370.607 183.288 370.334 184.646 369.811 185.863C369.288 187.076 368.486 188.117 367.414 188.976Z" fill="#AAD4C8"/>
<path d="M365.524 412.721H314.499V421.254H365.524V412.721Z" fill="#616E7D"/>
<path d="M365.524 435.743H314.499V444.277H365.524V435.743Z" fill="#616E7D"/>
<path d="M445.58 40.171H0V59.175H445.58V40.171Z" fill="#AAD4C8"/>
</svg>
